<mxfile host="app.diagrams.net" modified="2022-05-21T14:00:42.353Z" agent="5.0 (Macintosh; Intel Mac OS X 10_15_7) AppleWebKit/537.36 (KHTML, like Gecko) Chrome/101.0.4951.64 Safari/537.36" etag="eT5GwwAk4yb5aW5BCv0c" version="18.0.8" type="github">
  <diagram id="rHaBHEUqX6c-jU-XFxxN" name="Page-1">
    <mxGraphModel dx="946" dy="504" grid="1" gridSize="10" guides="1" tooltips="1" connect="1" arrows="1" fold="1" page="1" pageScale="1" pageWidth="827" pageHeight="1169" math="0" shadow="0">
      <root>
        <mxCell id="0" />
        <mxCell id="1" parent="0" />
        <mxCell id="4AgUB-SgfKq0cedlVhCr-1" value="管理员" style="shape=umlActor;verticalLabelPosition=bottom;verticalAlign=top;html=1;fillColor=#f5f5f5;fontColor=#333333;strokeColor=#666666;" vertex="1" parent="1">
          <mxGeometry x="115" y="490" width="30" height="60" as="geometry" />
        </mxCell>
        <mxCell id="4AgUB-SgfKq0cedlVhCr-2" value="" style="edgeStyle=orthogonalEdgeStyle;rounded=0;orthogonalLoop=1;jettySize=auto;html=1;" edge="1" parent="1" source="4AgUB-SgfKq0cedlVhCr-5" target="4AgUB-SgfKq0cedlVhCr-16">
          <mxGeometry relative="1" as="geometry" />
        </mxCell>
        <mxCell id="4AgUB-SgfKq0cedlVhCr-3" value="" style="edgeStyle=orthogonalEdgeStyle;rounded=0;orthogonalLoop=1;jettySize=auto;html=1;" edge="1" parent="1" source="4AgUB-SgfKq0cedlVhCr-5" target="4AgUB-SgfKq0cedlVhCr-17">
          <mxGeometry relative="1" as="geometry" />
        </mxCell>
        <mxCell id="4AgUB-SgfKq0cedlVhCr-4" value="" style="edgeStyle=orthogonalEdgeStyle;rounded=0;orthogonalLoop=1;jettySize=auto;html=1;" edge="1" parent="1" source="4AgUB-SgfKq0cedlVhCr-5" target="4AgUB-SgfKq0cedlVhCr-23">
          <mxGeometry relative="1" as="geometry" />
        </mxCell>
        <mxCell id="4AgUB-SgfKq0cedlVhCr-5" value="商家" style="shape=umlActor;verticalLabelPosition=bottom;verticalAlign=top;html=1;fillColor=#f5f5f5;fontColor=#333333;strokeColor=#666666;" vertex="1" parent="1">
          <mxGeometry x="225" y="340" width="30" height="60" as="geometry" />
        </mxCell>
        <mxCell id="4AgUB-SgfKq0cedlVhCr-6" value="" style="edgeStyle=orthogonalEdgeStyle;rounded=0;orthogonalLoop=1;jettySize=auto;html=1;" edge="1" parent="1" source="4AgUB-SgfKq0cedlVhCr-7" target="4AgUB-SgfKq0cedlVhCr-20">
          <mxGeometry relative="1" as="geometry" />
        </mxCell>
        <mxCell id="4AgUB-SgfKq0cedlVhCr-7" value="外卖员" style="shape=umlActor;verticalLabelPosition=bottom;verticalAlign=top;html=1;" vertex="1" parent="1">
          <mxGeometry x="235" y="630" width="30" height="60" as="geometry" />
        </mxCell>
        <mxCell id="4AgUB-SgfKq0cedlVhCr-8" value="" style="edgeStyle=orthogonalEdgeStyle;rounded=0;orthogonalLoop=1;jettySize=auto;html=1;" edge="1" parent="1" source="4AgUB-SgfKq0cedlVhCr-12" target="4AgUB-SgfKq0cedlVhCr-18">
          <mxGeometry relative="1" as="geometry" />
        </mxCell>
        <mxCell id="4AgUB-SgfKq0cedlVhCr-9" value="" style="edgeStyle=orthogonalEdgeStyle;rounded=0;orthogonalLoop=1;jettySize=auto;html=1;" edge="1" parent="1" source="4AgUB-SgfKq0cedlVhCr-12" target="4AgUB-SgfKq0cedlVhCr-19">
          <mxGeometry relative="1" as="geometry" />
        </mxCell>
        <mxCell id="4AgUB-SgfKq0cedlVhCr-10" value="" style="edgeStyle=orthogonalEdgeStyle;rounded=0;orthogonalLoop=1;jettySize=auto;html=1;entryX=0.567;entryY=0.783;entryDx=0;entryDy=0;entryPerimeter=0;" edge="1" parent="1" source="4AgUB-SgfKq0cedlVhCr-12" target="4AgUB-SgfKq0cedlVhCr-5">
          <mxGeometry relative="1" as="geometry" />
        </mxCell>
        <mxCell id="4AgUB-SgfKq0cedlVhCr-11" value="状态" style="edgeLabel;html=1;align=center;verticalAlign=middle;resizable=0;points=[];" vertex="1" connectable="0" parent="4AgUB-SgfKq0cedlVhCr-10">
          <mxGeometry x="-0.4186" relative="1" as="geometry">
            <mxPoint x="1" as="offset" />
          </mxGeometry>
        </mxCell>
        <mxCell id="4AgUB-SgfKq0cedlVhCr-12" value="同学" style="shape=umlActor;verticalLabelPosition=bottom;verticalAlign=top;html=1;" vertex="1" parent="1">
          <mxGeometry x="235" y="490" width="35" height="60" as="geometry" />
        </mxCell>
        <mxCell id="4AgUB-SgfKq0cedlVhCr-13" value="" style="endArrow=classic;html=1;rounded=0;exitX=0.75;exitY=0.1;exitDx=0;exitDy=0;exitPerimeter=0;entryX=0;entryY=1;entryDx=0;entryDy=0;entryPerimeter=0;" edge="1" parent="1" source="4AgUB-SgfKq0cedlVhCr-1" target="4AgUB-SgfKq0cedlVhCr-5">
          <mxGeometry width="50" height="50" relative="1" as="geometry">
            <mxPoint x="390" y="600" as="sourcePoint" />
            <mxPoint x="440" y="550" as="targetPoint" />
          </mxGeometry>
        </mxCell>
        <mxCell id="4AgUB-SgfKq0cedlVhCr-14" value="" style="endArrow=classic;html=1;rounded=0;entryX=0;entryY=0.3333333333333333;entryDx=0;entryDy=0;entryPerimeter=0;" edge="1" parent="1" target="4AgUB-SgfKq0cedlVhCr-12">
          <mxGeometry width="50" height="50" relative="1" as="geometry">
            <mxPoint x="150" y="510" as="sourcePoint" />
            <mxPoint x="235" y="410" as="targetPoint" />
          </mxGeometry>
        </mxCell>
        <mxCell id="4AgUB-SgfKq0cedlVhCr-15" value="" style="endArrow=classic;html=1;rounded=0;entryX=0.25;entryY=0.1;entryDx=0;entryDy=0;entryPerimeter=0;" edge="1" parent="1" source="4AgUB-SgfKq0cedlVhCr-1" target="4AgUB-SgfKq0cedlVhCr-7">
          <mxGeometry width="50" height="50" relative="1" as="geometry">
            <mxPoint x="157.5" y="516" as="sourcePoint" />
            <mxPoint x="230" y="650" as="targetPoint" />
          </mxGeometry>
        </mxCell>
        <mxCell id="4AgUB-SgfKq0cedlVhCr-16" value="增加改查商品" style="ellipse;whiteSpace=wrap;html=1;verticalAlign=top;fillColor=#f5f5f5;strokeColor=#666666;fontColor=#333333;" vertex="1" parent="1">
          <mxGeometry x="254" y="250" width="160" height="60" as="geometry" />
        </mxCell>
        <mxCell id="4AgUB-SgfKq0cedlVhCr-17" value="查看订单情况" style="ellipse;whiteSpace=wrap;html=1;verticalAlign=top;fillColor=#f5f5f5;strokeColor=#666666;fontColor=#333333;" vertex="1" parent="1">
          <mxGeometry x="354" y="320" width="120" height="60" as="geometry" />
        </mxCell>
        <mxCell id="4AgUB-SgfKq0cedlVhCr-18" value="商家与商品的查看" style="ellipse;whiteSpace=wrap;html=1;verticalAlign=top;" vertex="1" parent="1">
          <mxGeometry x="400" y="440" width="120" height="60" as="geometry" />
        </mxCell>
        <mxCell id="4AgUB-SgfKq0cedlVhCr-19" value="添加个人信息" style="ellipse;whiteSpace=wrap;html=1;verticalAlign=top;" vertex="1" parent="1">
          <mxGeometry x="354" y="510" width="120" height="60" as="geometry" />
        </mxCell>
        <mxCell id="4AgUB-SgfKq0cedlVhCr-20" value="订单信息(商家 收货地址)" style="ellipse;whiteSpace=wrap;html=1;verticalAlign=top;" vertex="1" parent="1">
          <mxGeometry x="320" y="600" width="120" height="60" as="geometry" />
        </mxCell>
        <mxCell id="4AgUB-SgfKq0cedlVhCr-21" value="" style="edgeStyle=orthogonalEdgeStyle;rounded=0;orthogonalLoop=1;jettySize=auto;html=1;entryX=1;entryY=1;entryDx=0;entryDy=0;entryPerimeter=0;" edge="1" parent="1" source="4AgUB-SgfKq0cedlVhCr-23" target="4AgUB-SgfKq0cedlVhCr-7">
          <mxGeometry relative="1" as="geometry">
            <Array as="points">
              <mxPoint x="640" y="400" />
              <mxPoint x="640" y="710" />
              <mxPoint x="265" y="710" />
            </Array>
          </mxGeometry>
        </mxCell>
        <mxCell id="4AgUB-SgfKq0cedlVhCr-22" value="通知" style="edgeLabel;html=1;align=center;verticalAlign=middle;resizable=0;points=[];" vertex="1" connectable="0" parent="4AgUB-SgfKq0cedlVhCr-21">
          <mxGeometry x="-0.0471" y="-1" relative="1" as="geometry">
            <mxPoint as="offset" />
          </mxGeometry>
        </mxCell>
        <mxCell id="4AgUB-SgfKq0cedlVhCr-23" value="商品制作完成" style="ellipse;whiteSpace=wrap;html=1;verticalAlign=top;fillColor=#f5f5f5;strokeColor=#666666;fontColor=#333333;" vertex="1" parent="1">
          <mxGeometry x="290" y="380" width="100" height="40" as="geometry" />
        </mxCell>
      </root>
    </mxGraphModel>
  </diagram>
</mxfile>
